<svg xmlns="http://www.w3.org/2000/svg" viewBox="0 0 80 110" fill="currentColor">
  <!-- Crown finial - Copa del Rey = King's Cup, prominent crown -->
  <path d="M28 12 L31 5 L35 11 L40 4 L45 11 L49 5 L52 12 L50 18 L30 18 Z"/>
  <rect x="28" y="18" width="24" height="4" rx="1"/>
  <!-- Wide regal bowl -->
  <path d="M28 22 Q19 24 17 34 Q15 44 22 48 L24 50 L56 50 L58 48 Q65 44 63 34 Q61 24 52 22 Z"/>
  <!-- Ornate handles - Copa del Rey has elaborate handles -->
  <path d="M22 28 Q10 26 9 35 Q8 44 20 48 L24 46 L24 40 Q14 44 13 36 Q12 28 20 30 Z"/>
  <path d="M58 28 Q70 26 71 35 Q72 44 60 48 L56 46 L56 40 Q66 44 67 36 Q68 28 60 30 Z"/>
  <!-- Waist -->
  <path d="M24 50 L26 58 L54 58 L56 50 Z"/>
  <rect x="27" y="58" width="26" height="6" rx="2"/>
  <!-- Stem -->
  <rect x="35" y="64" width="10" height="16" rx="1"/>
  <rect x="29" y="74" width="22" height="5" rx="2"/>
  <!-- Base -->
  <path d="M27 79 L25 86 Q24 90 27 91 L53 91 Q56 90 55 86 L53 79 Z"/>
  <rect x="21" y="91" width="38" height="5" rx="2"/>
  <rect x="17" y="96" width="46" height="5" rx="2"/>
</svg>
