<svg xmlns="http://www.w3.org/2000/svg" viewBox="0 0 80 110" fill="currentColor">
  <!-- Crown - La Liga trophy has a crown on top -->
  <path d="M30 10 L33 4 L36 9 L40 3 L44 9 L47 4 L50 10 L48 16 L32 16 Z"/>
  <rect x="30" y="16" width="20" height="4" rx="1"/>
  <!-- Narrow upper section -->
  <path d="M30 20 Q26 22 25 28 L25 36 Q26 40 30 42 L50 42 Q54 40 55 36 L55 28 Q54 22 50 20 Z"/>
  <!-- Handles - La Liga has relatively small upswept handles -->
  <path d="M25 26 Q16 26 15 32 Q14 38 22 40 L25 38 L25 34 Q18 36 18 32 Q18 28 24 28 Z"/>
  <path d="M55 26 Q64 26 65 32 Q66 38 58 40 L55 38 L55 34 Q62 36 62 32 Q62 28 56 28 Z"/>
  <!-- Mid section -->
  <path d="M30 42 L28 50 L52 50 L50 42 Z"/>
  <rect x="26" y="50" width="28" height="6" rx="2"/>
  <!-- Stem -->
  <rect x="35" y="56" width="10" height="20" rx="1"/>
  <!-- Lower knop -->
  <rect x="28" y="70" width="24" height="5" rx="2"/>
  <!-- Base -->
  <path d="M26 75 L24 82 Q23 86 26 87 L54 87 Q57 86 56 82 L54 75 Z"/>
  <rect x="20" y="87" width="40" height="5" rx="2"/>
  <rect x="16" y="92" width="48" height="5" rx="2"/>
</svg>
