<svg xmlns="http://www.w3.org/2000/svg" viewBox="0 0 80 110" fill="currentColor">
  <!-- Crown at top -->
  <path d="M28 8 L32 2 L35 8 L38 3 L40 9 L42 3 L45 8 L48 2 L52 8 L50 14 L30 14 Z"/>
  <!-- Crown band -->
  <rect x="27" y="14" width="26" height="5" rx="1"/>
  <!-- Upper bowl - wide Premier League cup shape -->
  <path d="M27 19 Q20 22 18 30 Q16 38 22 42 L24 44 L56 44 L58 42 Q64 38 62 30 Q60 22 53 19 Z"/>
  <!-- Handles - looped Premier League style -->
  <path d="M22 26 Q12 26 10 32 Q8 38 14 40 Q18 42 22 38 L22 34 Q16 36 15 32 Q14 28 20 28 Z"/>
  <path d="M58 26 Q68 26 70 32 Q72 38 66 40 Q62 42 58 38 L58 34 Q64 36 65 32 Q66 28 60 28 Z"/>
  <!-- Waist narrowing -->
  <path d="M24 44 L26 50 L54 50 L56 44 Z"/>
  <!-- Mid section knop -->
  <rect x="28" y="50" width="24" height="6" rx="2"/>
  <!-- Lower stem -->
  <rect x="34" y="56" width="12" height="20" rx="1"/>
  <!-- Base spread -->
  <path d="M28 76 L26 82 Q25 86 28 87 L52 87 Q55 86 54 82 L52 76 Z"/>
  <!-- Base foot -->
  <rect x="22" y="87" width="36" height="6" rx="2"/>
  <rect x="18" y="93" width="44" height="5" rx="2"/>
</svg>
