<svg xmlns="http://www.w3.org/2000/svg" viewBox="0 0 80 110" fill="currentColor">
  <!-- UEL has a distinctive oval/egg-shaped bowl -->
  <!-- Top finial with star -->
  <path d="M40 3 L41.5 7.5 L46 7.5 L42.5 10 L44 14.5 L40 12 L36 14.5 L37.5 10 L34 7.5 L38.5 7.5 Z"/>
  <!-- Oval bowl - the defining feature of UEL trophy -->
  <path d="M26 24 Q22 24 20 32 Q18 44 24 52 Q30 58 40 58 Q50 58 56 52 Q62 44 60 32 Q58 24 54 24 Q50 20 40 20 Q30 20 26 24 Z"/>
  <!-- Handles - UEL has small side handles -->
  <path d="M20 34 Q12 34 12 40 Q12 46 20 48 L22 46 L22 42 Q16 44 16 40 Q16 36 20 37 Z"/>
  <path d="M60 34 Q68 34 68 40 Q68 46 60 48 L58 46 L58 42 Q64 44 64 40 Q64 36 60 37 Z"/>
  <!-- Stem top -->
  <path d="M30 58 L32 66 L48 66 L50 58 Z"/>
  <rect x="30" y="66" width="20" height="5" rx="2"/>
  <!-- Long elegant stem - UEL has a notably tall stem -->
  <rect x="37" y="71" width="6" height="18" rx="1"/>
  <rect x="31" y="82" width="18" height="4" rx="2"/>
  <!-- Base -->
  <path d="M29 86 L27 92 Q26 96 29 97 L51 97 Q54 96 53 92 L51 86 Z"/>
  <rect x="23" y="97" width="34" height="5" rx="2"/>
  <rect x="19" y="102" width="42" height="4" rx="2"/>
</svg>
