<svg xmlns="http://www.w3.org/2000/svg" viewBox="0 0 80 110" fill="currentColor">
  <!-- Top finial - small round -->
  <circle cx="40" cy="8" r="3"/>
  <rect x="38.5" y="11" width="3" height="4"/>
  <!-- Lid - Carabao cup has a distinct removable lid -->
  <path d="M30 15 Q30 13 40 13 Q50 13 50 15 L52 20 L28 20 Z"/>
  <rect x="27" y="20" width="26" height="3" rx="1"/>
  <!-- Bowl - Carabao cup is wide and relatively squat -->
  <path d="M27 23 Q18 25 16 33 Q14 41 20 45 L22 47 L58 47 L60 45 Q66 41 64 33 Q62 25 53 23 Z"/>
  <!-- Handles - wide curved handles characteristic of League Cup -->
  <path d="M20 30 Q8 28 7 36 Q6 44 18 46 L22 44 L22 40 Q12 42 12 36 Q12 30 20 33 Z"/>
  <path d="M60 30 Q72 28 73 36 Q74 44 62 46 L58 44 L58 40 Q68 42 68 36 Q68 30 60 33 Z"/>
  <!-- Waist taper -->
  <path d="M22 47 L24 54 L56 54 L58 47 Z"/>
  <!-- Stem knop - prominent on Carabao cup -->
  <rect x="26" y="54" width="28" height="7" rx="3"/>
  <!-- Stem -->
  <rect x="36" y="61" width="8" height="16" rx="1"/>
  <!-- Lower knop -->
  <rect x="30" y="71" width="20" height="5" rx="2"/>
  <!-- Base -->
  <path d="M28 76 L26 82 Q25 86 28 87 L52 87 Q55 86 54 82 L52 76 Z"/>
  <rect x="22" y="87" width="36" height="5" rx="2"/>
  <rect x="18" y="92" width="44" height="5" rx="2"/>
</svg>
