<svg xmlns="http://www.w3.org/2000/svg" viewBox="0 0 80 110" fill="currentColor">
  <!-- Small finial -->
  <circle cx="40" cy="7" r="3.5"/>
  <rect x="38.5" y="10" width="3" height="5"/>
  <!-- Lid -->
  <path d="M29 15 Q29 13 40 13 Q51 13 51 15 L52 21 L28 21 Z"/>
  <rect x="27" y="21" width="26" height="3" rx="1"/>
  <!-- DFB Pokal bowl - medium width, slightly angular -->
  <path d="M27 24 Q19 26 18 34 Q17 42 22 46 L24 48 L56 48 L58 46 Q63 42 62 34 Q61 26 53 24 Z"/>
  <!-- Handles - DFB Pokal has angular bracket-style handles -->
  <path d="M22 30 L14 28 L12 36 L14 42 L22 42 L22 38 L16 38 L16 32 L22 34 Z"/>
  <path d="M58 30 L66 28 L68 36 L66 42 L58 42 L58 38 L64 38 L64 32 L58 34 Z"/>
  <!-- Waist -->
  <path d="M24 48 L26 56 L54 56 L56 48 Z"/>
  <rect x="27" y="56" width="26" height="6" rx="2"/>
  <!-- Stem -->
  <rect x="35" y="62" width="10" height="18" rx="1"/>
  <rect x="30" y="74" width="20" height="5" rx="2"/>
  <!-- Base -->
  <path d="M28 79 L26 86 Q25 90 28 91 L52 91 Q55 90 54 86 L52 79 Z"/>
  <rect x="22" y="91" width="36" height="5" rx="2"/>
  <rect x="18" y="96" width="44" height="5" rx="2"/>
</svg>
